<svg width="35" height="41" viewBox="0 0 35 41" fill="none" xmlns="http://www.w3.org/2000/svg">
<g id="Layer_1" clip-path="url(#clip0_29_736)">
<path id="Vector" fill-rule="evenodd" clip-rule="evenodd" d="M20.8545 14.6833C22.085 14.0725 23.6503 13.1732 25.2178 11.9408C25.5482 12.6243 25.5847 13.2206 25.4141 13.702C25.2934 14.0413 25.0659 14.3366 24.7672 14.5713C24.4436 14.825 24.0391 15.01 23.5922 15.1098C22.7442 15.3 21.7539 15.1888 20.8545 14.6829M21.0679 20.9427L22.6965 21.8795C19.3711 23.7357 18.4669 27.1821 17.3928 30.5387C16.3191 27.1821 15.4148 23.7353 12.0895 21.8795L13.7181 20.9427C14.0413 20.8211 14.2492 20.5062 14.2328 20.1624C14.0834 17.0186 14.9359 15.6283 16.086 14.7556C16.4982 14.443 16.9485 14.2861 17.3928 14.2861C17.8371 14.2861 18.2874 14.443 18.6996 14.7556C19.8493 15.6286 20.7018 17.0186 20.5528 20.1624C20.5364 20.5062 20.7446 20.8211 21.0675 20.9427H21.0679ZM17.3932 0.415527C19.2758 0.465964 21.1632 0.82978 22.8012 1.53775C23.9356 2.02877 24.9936 2.67704 25.9522 3.45251C26.385 3.8026 26.7414 4.14083 27.134 4.53023C28.1928 4.56658 29.7402 3.3954 30.4586 2.2995C29.2221 6.33559 23.5806 11.1015 19.675 12.9254C19.6735 12.9247 19.6724 12.9239 19.6713 12.9232C18.9704 12.3903 18.182 12.1236 17.3935 12.1236C16.6051 12.1236 15.8167 12.3903 15.1158 12.9232C15.1147 12.9239 15.1136 12.9251 15.1121 12.9254C11.2057 11.1015 5.56458 6.33522 4.32812 2.2995C5.04653 3.3954 6.59359 4.56695 7.65239 4.53023C8.04493 4.1412 8.40134 3.8026 8.8341 3.45251C9.79235 2.67704 10.8508 2.02877 11.9852 1.53775C13.6235 0.82978 15.5106 0.465964 17.3932 0.415527ZM13.9319 14.6833C12.7017 14.0725 11.1361 13.1732 9.56852 11.9408C9.23818 12.6243 9.20168 13.2206 9.37188 13.702C9.49254 14.0413 9.7201 14.3366 10.0188 14.5713C10.3428 14.825 10.7472 15.01 11.1942 15.1098C12.0422 15.3 13.0324 15.1888 13.9315 14.6829" fill="black"/>
<path id="Vector_2" fill-rule="evenodd" clip-rule="evenodd" d="M26.9347 10.4311C27.7976 9.56404 28.5581 8.60425 29.1693 7.74756L29.4799 8.32944C30.4795 10.321 30.999 12.3047 30.999 14.5369L30.9968 18.0794L31.0154 19.9155C31.0877 24.4237 32.0675 28.9846 34.2864 33.1586L29.6438 29.4307L26.359 34.7389L22.9081 31.5038L17.3932 40.4156L11.8783 31.5042L8.42744 34.7392L5.14265 29.4311L0.5 33.159C2.71891 28.9849 3.69839 24.4237 3.77101 19.9159L3.78963 18.0798L3.7874 14.5373C3.7874 12.3047 4.30656 10.3213 5.30652 8.32981L5.61675 7.74793C6.22827 8.60425 6.98839 9.56404 7.8513 10.4315L7.58166 10.9889C7.05803 12.0714 6.88486 13.2819 7.29266 14.4334C7.55559 15.1748 8.03528 15.8108 8.65388 16.2963C9.2546 16.7677 9.96556 17.0855 10.7097 17.2524C11.1946 17.361 11.6884 17.4059 12.1793 17.3907C12.0649 18.0371 12.0146 18.7073 12.0117 19.3904L7.63231 21.9093L11.0117 23.7955C11.2817 23.9464 11.5391 24.1189 11.7804 24.3121C14.5665 26.8032 16.2417 34.1725 17.3928 37.7721C18.544 34.1725 20.2192 26.8032 23.0053 24.3121C23.2466 24.1192 23.504 23.9464 23.774 23.7955L27.1534 21.9093L22.774 19.3904C22.7707 18.7073 22.7207 18.0371 22.6064 17.3907C23.0973 17.4059 23.5911 17.361 24.076 17.2524C24.8201 17.0855 25.5311 16.7677 26.1318 16.2963C26.7504 15.8108 27.2301 15.1748 27.493 14.4334C27.9008 13.2823 27.7276 12.0718 27.204 10.9889L26.9347 10.4311Z" fill="black"/>
</g>
<defs>
<clipPath id="clip0_29_736">
<rect width="33.7864" height="40" fill="white" transform="translate(0.5 0.415527)"/>
</clipPath>
</defs>
</svg>
