<svg width="35" height="41" viewBox="0 0 35 41" fill="none" xmlns="http://www.w3.org/2000/svg">
<path fill-rule="evenodd" clip-rule="evenodd" d="M12.847 2.67743C10.4806 3.91865 8.54458 4.96909 8.54506 5.01186C8.54617 5.12206 14.2244 8.01791 14.4259 8.01086C14.5175 8.00782 15.1826 7.69948 15.9038 7.32594L17.2151 6.64679L18.6472 7.38809L20.0793 8.12955L22.4246 7.06838C25.9584 5.46933 26.3254 5.29409 26.2679 5.23531C26.1916 5.15714 24.9242 4.47158 21.4853 2.64844C19.8234 1.7673 18.2103 0.903467 17.9006 0.728553C17.5907 0.553479 17.2952 0.412843 17.2435 0.415566C17.1918 0.418289 15.2133 1.43606 12.8469 2.67727L12.847 2.67743ZM2.46808 8.08935L0.004772 9.37077V14.9941C0.004772 18.087 0.0370625 20.6175 0.0768292 20.6175C0.116596 20.6175 1.32837 20.0884 2.76999 19.4418L5.39125 18.2661V12.3387L6.67221 13.0414C7.65922 13.5825 8.64702 14.1223 9.63514 14.6611L11.3171 15.5781L12.0655 15.2373C12.5349 15.0231 13.0034 14.807 13.4709 14.5887C13.8321 14.4192 14.7189 14.017 15.4416 13.6948C16.1642 13.3723 16.8331 13.048 16.9279 12.9741C17.0539 12.8759 15.5176 12.0211 11.2455 9.8119C8.02539 8.14669 5.28737 6.78951 5.16108 6.79608C5.03478 6.80264 3.82301 7.38441 2.46808 8.08919V8.08935ZM26.7116 8.44911C25.0339 9.21171 23.66 9.8662 23.6585 9.90352C23.657 9.94084 24.5713 10.4883 25.6905 11.1201C26.8096 11.752 27.7253 12.3027 27.7253 12.3441C27.7253 12.3856 26.735 12.8687 25.5248 13.4181C24.3143 13.9674 21.255 15.3587 18.726 16.5099L10.252 20.3669C8.12035 21.3373 6.19899 22.2119 5.98218 22.3107C1.62821 24.2955 0.431548 24.8462 0.267232 24.9407C0.101962 25.0358 0.0645811 25.5887 0.0351537 28.364L0 31.674L2.20291 32.8043L4.40567 33.9345L7.46023 32.5464C9.14029 31.783 10.5148 31.1184 10.5148 31.0694C10.5148 31.0204 10.2043 30.8169 9.82507 30.6165C9.4457 30.4162 8.66229 29.9728 8.08424 29.6308C7.5062 29.2888 6.9299 28.9752 6.80328 28.9336C6.67682 28.8921 6.57518 28.8195 6.57725 28.7721C6.57931 28.7249 7.92438 28.0816 9.56611 27.3424C12.7548 25.9067 15.195 24.8002 20.4339 22.4147C22.7764 21.348 25.1195 20.2825 27.4625 19.217C29.5218 18.281 31.9162 17.1879 32.7833 16.7878L34.3598 16.0604L34.3948 12.7127L34.43 9.36516L32.1957 8.21044C30.9668 7.57534 29.9165 7.05732 29.8614 7.05925C29.8064 7.06101 28.3888 7.6865 26.7113 8.44927L26.7116 8.44911ZM33.7614 20.5263C33.4321 20.6883 32.7819 20.9915 32.3163 21.2C31.8507 21.4086 30.9673 21.81 30.3529 22.0922L29.2363 22.6051L29.2108 25.544C29.1968 27.1604 29.1377 28.4758 29.0794 28.4673C28.9473 28.4474 26.8543 27.3665 24.7505 26.2314C23.232 25.4121 23.1366 25.3795 22.7798 25.5575C22.5735 25.6605 21.3405 26.2173 20.0399 26.795C18.7392 27.3728 17.6327 27.8833 17.5805 27.9294C17.5287 27.9755 20.1463 29.4042 23.3977 31.1044L29.3093 34.1957L31.8346 32.8802C33.2235 32.1568 34.4044 31.4969 34.4588 31.4139C34.5812 31.2273 34.5707 20.2061 34.4481 20.221C34.3996 20.227 34.0905 20.3642 33.7613 20.5262L33.7614 20.5263ZM19.7771 33.4624C19.339 33.6521 18.9011 33.842 18.4633 34.0322C17.1413 34.6082 17.4003 34.6272 15.8274 33.8388C14.7798 33.3138 14.3282 33.1517 14.1323 33.2303C13.9853 33.2893 12.7199 33.8625 11.3203 34.5042C9.92067 35.1459 8.72703 35.6708 8.6677 35.6708C8.08043 35.6708 9.05678 36.2582 12.8238 38.1716L17.2417 40.4156L19.1006 39.4915C20.1229 38.9833 22.185 37.9653 23.6831 37.2298C25.181 36.4939 26.3882 35.8728 26.3656 35.8494C26.3429 35.826 25.0877 35.177 23.5762 34.4071L20.828 33.0075L19.7771 33.4627V33.4624Z" fill="#08A2C9"/>
</svg>
