<svg width="144" height="41" viewBox="0 0 144 41" fill="none" xmlns="http://www.w3.org/2000/svg">
<g clip-path="url(#clip0_107_27)">
<path d="M42.0366 0.42555H0.955999C0.701066 0.42555 0.457969 0.518751 0.278605 0.686151C0.191302 0.766229 0.121514 0.863306 0.0735838 0.971341C0.0256533 1.07938 0.000605938 1.19606 0 1.31413L0 39.5175C0 39.7528 0.100152 39.979 0.279516 40.1455C0.458879 40.312 0.701976 40.4061 0.955088 40.4061H42.0366C42.2906 40.4061 42.5328 40.312 42.7131 40.1455C42.8005 40.0655 42.8705 39.9684 42.9185 39.8604C42.9666 39.7523 42.9918 39.6356 42.9926 39.5175V1.31413C42.9926 1.07886 42.8925 0.852646 42.7131 0.686151C42.5289 0.517388 42.2872 0.42427 42.0366 0.42555ZM28.6617 26.1907C28.6617 26.4259 28.5616 26.6521 28.3813 26.8186C28.1976 26.9871 27.9566 27.0802 27.7067 27.0792H15.286C15.0328 27.0792 14.7898 26.9851 14.6104 26.8186C14.5229 26.7386 14.453 26.6416 14.4049 26.5336C14.3568 26.4255 14.3316 26.3088 14.3309 26.1907V14.641C14.3309 14.4057 14.431 14.1795 14.6104 14.013C14.7898 13.8456 15.0328 13.7524 15.286 13.7524H27.7067C27.9598 13.7524 28.2029 13.8456 28.3813 14.013C28.469 14.0929 28.5392 14.1899 28.5874 14.2979C28.6357 14.406 28.661 14.5228 28.6617 14.641V26.1907ZM128.04 13.7542H115.619C115.091 13.7542 114.663 14.1523 114.663 14.6428V26.1925C114.663 26.6829 115.091 27.0811 115.619 27.0811H128.039C128.567 27.0811 128.995 26.6829 128.995 26.1925V14.6428C128.995 14.1514 128.567 13.7542 128.039 13.7542H128.04ZM113.712 0.42555H101.292C100.764 0.42555 100.336 0.823691 100.336 1.31503V12.8647C100.336 13.3552 100.764 13.7533 101.292 13.7533H113.711C114.239 13.7533 114.667 13.3552 114.667 12.8647V1.31503C114.667 0.823691 114.239 0.426455 113.711 0.426455L113.712 0.42555ZM142.378 0.42555H129.958C129.43 0.42555 129.002 0.823691 129.002 1.31503V12.8647C129.002 13.3552 129.43 13.7533 129.958 13.7533H142.377C142.905 13.7533 143.333 13.3552 143.333 12.8647V1.31503C143.333 0.823691 142.905 0.426455 142.377 0.426455L142.378 0.42555ZM113.712 27.0802H101.292C100.764 27.0802 100.336 27.4783 100.336 27.9687V39.5193C100.336 40.0098 100.764 40.407 101.292 40.407H113.711C114.239 40.407 114.667 40.0089 114.667 39.5193V27.9687C114.667 27.4783 114.24 27.0802 113.712 27.0802ZM142.378 27.0802H129.958C129.43 27.0802 129.002 27.4783 129.002 27.9687V39.5193C129.002 40.0098 129.43 40.407 129.958 40.407H142.377C142.905 40.407 143.333 40.0089 143.333 39.5193V27.9687C143.333 27.4783 142.905 27.0802 142.377 27.0802H142.378ZM92.1983 0.42555H79.7794C79.2514 0.42555 78.8234 0.823691 78.8234 1.31503V12.8647C78.8234 13.3552 79.2514 13.7533 79.7794 13.7533H92.1983C92.7264 13.7533 93.1543 13.3552 93.1543 12.8647V1.31503C93.1543 0.823691 92.7264 0.426455 92.1983 0.426455V0.42555ZM92.1983 27.0802H79.7794C79.2514 27.0802 78.8234 27.4783 78.8234 27.9687V39.5193C78.8234 40.0098 79.2514 40.407 79.7794 40.407H92.1983C92.7264 40.407 93.1543 40.0089 93.1543 39.5193V27.9687C93.1543 27.4783 92.7264 27.0802 92.1983 27.0802ZM78.8198 14.631C78.8198 14.3958 78.7178 14.1695 78.5394 14.0021C78.3553 13.8338 78.1139 13.7411 77.8638 13.7424H64.488V1.31413C64.488 1.07886 64.3879 0.852646 64.2085 0.686151C64.0246 0.517524 63.7832 0.424409 63.5329 0.42555H51.1131C50.8591 0.42555 50.616 0.518751 50.4367 0.686151C50.3492 0.76615 50.2792 0.863191 50.2311 0.97123C50.1831 1.07927 50.1579 1.19599 50.1572 1.31413V39.4976C50.1572 39.7329 50.2573 39.9591 50.4367 40.1256C50.616 40.2921 50.8591 40.3862 51.1131 40.3862H63.532C63.786 40.3862 64.0291 40.2921 64.2085 40.1256C64.3879 39.9591 64.488 39.7329 64.488 39.4976V27.0693H77.8629C78.1169 27.0693 78.36 26.9752 78.5394 26.8087C78.6268 26.7287 78.6967 26.6316 78.7448 26.5236C78.7929 26.4155 78.8181 26.2988 78.8189 26.1807L78.8198 14.631Z" fill="black"/>
</g>
<defs>
<clipPath id="clip0_107_27">
<rect width="143.333" height="40" fill="white" transform="translate(0 0.415527)"/>
</clipPath>
</defs>
</svg>
