<svg width="48" height="49" viewBox="0 0 48 49" fill="none" xmlns="http://www.w3.org/2000/svg">
<g id="mingcute:telegram-fill" clip-path="url(#clip0_29_726)">
<g id="Group">
<path id="Vector" fill-rule="evenodd" clip-rule="evenodd" d="M39.5533 9.27546C40.0475 9.06744 40.5885 8.9957 41.1199 9.06769C41.6513 9.13969 42.1536 9.35279 42.5747 9.68483C42.9957 10.0169 43.3201 10.4557 43.514 10.9556C43.708 11.4556 43.7643 11.9983 43.6773 12.5275L39.1413 40.0415C38.7013 42.6955 35.7893 44.2175 33.3553 42.8955C31.3193 41.7895 28.2953 40.0855 25.5753 38.3075C24.2153 37.4175 20.0493 34.5675 20.5613 32.5395C21.0013 30.8055 28.0013 24.2895 32.0013 20.4155C33.5713 18.8935 32.8553 18.0155 31.0013 19.4155C26.3973 22.8915 19.0053 28.1775 16.5613 29.6655C14.4053 30.9775 13.2813 31.2015 11.9373 30.9775C9.48531 30.5695 7.21131 29.9375 5.35531 29.1675C2.84731 28.1275 2.96931 24.6795 5.35331 23.6755L39.5533 9.27546Z" fill="black"/>
</g>
</g>
<defs>
<clipPath id="clip0_29_726">
<rect width="48" height="48" fill="white" transform="translate(0 0.415527)"/>
</clipPath>
</defs>
</svg>
